<svg width="10" height="10" viewBox="0 0 10 10" fill="none" xmlns="http://www.w3.org/2000/svg">
<path d="M5 3.8975L4.44125 2.77938C4.3025 2.5025 4.06187 2.10438 3.72125 1.7825C3.38625 1.46563 2.985 1.25 2.5 1.25C1.4525 1.25 0.625 2.07875 0.625 3.075C0.625 3.83188 0.97125 4.36625 1.7925 5.18125C2.00312 5.39 2.24312 5.61563 2.50875 5.86438C3.20125 6.51438 4.0625 7.32313 5 8.40438C5.9375 7.32313 6.79875 6.51438 7.49125 5.86438C7.75688 5.61563 7.9975 5.38938 8.2075 5.18125C9.02875 4.36625 9.375 3.83188 9.375 3.075C9.375 2.07875 8.5475 1.25 7.5 1.25C7.01438 1.25 6.61375 1.46563 6.27875 1.7825C5.93812 2.10438 5.6975 2.5025 5.55875 2.77938L5 3.8975ZM5.245 9.08C5.2149 9.11565 5.17739 9.14431 5.13507 9.16396C5.09275 9.18362 5.04666 9.1938 5 9.1938C4.95334 9.1938 4.90725 9.18362 4.86493 9.16396C4.82261 9.14431 4.7851 9.11565 4.755 9.08C3.75437 7.89125 2.84875 7.04125 2.10313 6.34188C0.8125 5.13 0 4.36813 0 3.075C0 1.72188 1.11875 0.625 2.5 0.625C3.5 0.625 4.19937 1.28125 4.6275 1.88C4.79 2.10813 4.91375 2.3275 5 2.5C5.10812 2.28411 5.23265 2.07683 5.3725 1.88C5.80062 1.28062 6.5 0.625 7.5 0.625C8.88125 0.625 10 1.72188 10 3.075C10 4.36813 9.1875 5.13 7.89688 6.34188C7.15125 7.04188 6.24563 7.8925 5.245 9.08Z" fill="#49A4DB"/>
</svg>
